# xmcd CD database file
#
# Track frame offsets:
#	150
#	22430
#	45029
#	66239
#	86545
#	107528
#	130709
#	152569
#	174707
#	196878
#	216235
#	236496
#	256359
#	274739
#	292593
#	309946
#
# Disc length: 4412 seconds
#
# Revision: 1
# Processed by: cddbd v1.5.2PL0 Copyright (c) Steve Scherf et al.
# Submitted via: CDex 1.51
#
DISCID=d4113a10
DTITLE=Eddie Santiago - Solo Éxitos
DYEAR=2002
DGENRE=Salsa
TTITLE0=Lluvia
TTITLE1=Tu me quemas
TTITLE2=Mia
TTITLE3=De profesión tu amante
TTITLE4=Diez Años
TTITLE5=Que locura enamorarme de tí
TTITLE6=Momento de amor
TTITLE7=Todo empezó
TTITLE8=Noche no te vayas
TTITLE9=Cada vez
TTITLE10=Insaciable
TTITLE11=Volcan de amor
TTITLE12=Cabalgata
TTITLE13=Déjame amarte
TTITLE14=Nadie mejor que tu
TTITLE15=Tu me haces falta
EXTD=YEAR: 2002
EXTT0=
EXTT1=
EXTT2=
EXTT3=
EXTT4=
EXTT5=
EXTT6=
EXTT7=
EXTT8=
EXTT9=
EXTT10=
EXTT11=
EXTT12=
EXTT13=
EXTT14=
EXTT15=
PLAYORDER=
